<?xml version="1.0"?>
<svg xmlns:rdf="http://www.w3.org/1999/02/22-rdf-syntax-ns#" xmlns="http://www.w3.org/2000/svg" xmlns:cc="http://creativecommons.org/ns#" xmlns:dc="http://purl.org/dc/elements/1.1/" xmlns:svg="http://www.w3.org/2000/svg" id="svg3036" viewBox="0 0 162.14 192.6" version="1.1">
  <title id="title3851">Rock Art</title>
  <path id="path3837" d="m34.083 0.0018379c-6.9759-0.065-13.966 1.5928-19.469 5.1875-8.9239 5.8287-15.574 17.896-14.5 28.5 1.1591 11.446 10.677 23.098 21.5 27 6.888 2.4831 15.219-0.7364 21.5-4.5 6.9008-4.1353 16.033-14.534 13.732-26.632-0.061-0.3202-6.5766-19.499-22.579-18.073-8.1175 0.7234-22.3 3.0798-19.614 22.874 1.2526 9.2307 5.3604 15.714 17.81 12.774 6.7127-1.5847 12.426-6.5173 10.814-15.232-0.3695-1.9972-1.9149-7.2157-9.3065-6.9899-8.6902 0.2655-10.255 6.0674-12.53 11.136-3.0009-7.2452-2.7942-14.287 11.612-17.932 6.5936-1.6683 16.154 3.6568 16.976 12.749 1.2055 13.334-9.9707 21.154-17.201 21.448-18.81 0.7647-21.988-8.9723-23.146-17.603-2.4195-18.033 9.5821-25.094 25.054-25.968 14.373-0.8117 23.549 10.215 24.567 19.611 1.2764 11.784 8.778 40.433 12.311 45.838 4.2576 6.5137 11.153 10.992 18.414 12.111 7.3908 1.1393 14.087-9.8061 21.586-6.1109 2.4656 1.215 1.44 5.3089 2 8 0.5697 2.7379-11.876 0.2374-18.5 27-0.7651 3.0909-5.9373 3.4984-7 6.5-1.1799 3.3328-1.0973 8.1013 1.5 10.5 1.9629 1.8127 5.4365 1.2533 8 0.5 2.1131-0.6209 4.2485-2.1964 5.3125-3.9062 0.4356-0.7001 6.9542 1.0045 1.6875-4.5938-0.8221-0.8739-2.6787-15.204 2-20 1.8767-1.9236 5.3134-1.4035 8-1 0.6087 8.5819 1.2567 17.298-1 25.5-4.6298 16.826-8.9599 7.8066-25 46-4.3498 10.357 2.7437 26.808 13 7 4.7048-9.0867 5.9435-18.549 13.5-23.5 5.0496-3.3084 13.3-5.7891 18-2 7.5656 6.0996 2.7976 18.129 3 29 0.1818 9.7643 19.949 12.555 19-8.5-2.0182-44.791-12.882-32.369-18-49-2.4252-7.8815-5.6695-15.007-6-24 7.1711-0.9794 8.9898 1.2351 14.375 7.4688 13.778 15.948 22.948 5.5187 11.406-10.844-5-7.0887-18.144-13.75-24.125-23.156-6.2255-9.7912 3.1667-21.011-11.156-32.969-7.9797-6.6619-20.885-10.452-30.5-6.5-6.2535 2.5701-14.23 14.036-9.5381 26.86 2.889 7.8956 12.418 10.652 24.428 5.4266 1.8102-0.7876 11.776-6.8548 10.485-14.409-0.7117-4.1634-8.0305-11.235-15.233-8.6515-6.1382 2.2019-12.397 9.1545-9.7812 13.234 2.5886 4.0369 12.818 0.8376 5.9076-3.4075-1.603-0.9847 6.7302-7.414 10.182-2.1262 3.1362 4.8045-0.2358 9.4878-3.8765 10.829-9.9255 3.6562-17.3 2.2092-18.014-4.49-1.4206-13.328 8.3077-15.883 13.955-17.261 6.0984-1.4885 17.486 2.506 22.156 11.572 4.3567 8.4566-8.3844 14.192-14.742 17.776-16.904 9.5288-26.333 0.5935-29.869-3.8915-5.8502-7.4209-5.815-36.327-10.682-46.142-4.4177-8.9091-7.7651-15.839-16.879-19.818-4.6854-2.0455-10.106-3.1368-15.531-3.1875z"/>
  <metadata>
    <rdf:RDF>
      <cc:Work>
        <dc:format>image/svg+xml</dc:format>
        <dc:type rdf:resource="http://purl.org/dc/dcmitype/StillImage"/>
        <cc:license rdf:resource="http://creativecommons.org/licenses/publicdomain/"/>
        <dc:publisher>
          <cc:Agent rdf:about="http://openclipart.org/">
            <dc:title>Openclipart</dc:title>
          </cc:Agent>
        </dc:publisher>
        <dc:title>Rock Art Gila Person 1</dc:title>
        <dc:date>2011-03-01T06:07:21</dc:date>
        <dc:description>Gila Bend, Arizona petroglyph manually traced from public domain image at http://en.wikipedia.org/wiki/File:Ancientastronauts.jpg</dc:description>
        <dc:source>http://openclipart.org/detail/124585/rock-art-gila-person-by-serioustux</dc:source>
        <dc:creator>
          <cc:Agent>
            <dc:title>SeriousTux</dc:title>
          </cc:Agent>
        </dc:creator>
        <dc:subject>
          <rdf:Bag>
            <rdf:li>Arizona</rdf:li>
            <rdf:li>Gila Bend</rdf:li>
            <rdf:li>Petroglyph</rdf:li>
            <rdf:li>ancient</rdf:li>
            <rdf:li>b&amp;w</rdf:li>
            <rdf:li>black and white</rdf:li>
            <rdf:li>clip art</rdf:li>
            <rdf:li>clipart</rdf:li>
            <rdf:li>human</rdf:li>
            <rdf:li>person</rdf:li>
            <rdf:li>primitive</rdf:li>
            <rdf:li>rock art</rdf:li>
            <rdf:li>spiral</rdf:li>
            <rdf:li>tribal</rdf:li>
          </rdf:Bag>
        </dc:subject>
      </cc:Work>
      <cc:License rdf:about="http://creativecommons.org/licenses/publicdomain/">
        <cc:permits rdf:resource="http://creativecommons.org/ns#Reproduction"/>
        <cc:permits rdf:resource="http://creativecommons.org/ns#Distribution"/>
        <cc:permits rdf:resource="http://creativecommons.org/ns#DerivativeWorks"/>
      </cc:License>
    </rdf:RDF>
  </metadata>
</svg>
